Coordinates
version=1
nRows=9
nColumns=24
inDegrees=yes

Units are S.I. units (second, meters, Newtons, ...)
Angles are in degrees.

endheader
time	pelvis_tilt	pelvis_list	pelvis_rotation	pelvis_tx	pelvis_ty	pelvis_tz	hip_flexion_r	hip_adduction_r	hip_rotation_r	knee_angle_r	ankle_angle_r	subtalar_angle_r	mtp_angle_r	hip_flexion_l	hip_adduction_l	hip_rotation_l	knee_angle_l	ankle_angle_l	subtalar_angle_l	mtp_angle_l	lumbar_extension	lumbar_bending	lumbar_rotation
      5.45500000	     13.40634078	      0.84643951	      1.45744586	      1.54868420	      0.73036434	     -0.30746608	    -25.98945292	      0.90606018	     -3.57964656	    -32.38592321	     23.09131884	     26.76513846	      0.00000000	     15.67004436	      4.77841658	      0.07473158	    -20.67421107	     14.67756904	      4.34888372	      0.00000000	    -33.40992691	     -1.25385263	     12.85727253
      5.46000000	     13.46237864	      1.48061996	      1.44513368	      1.55694183	      0.73068231	     -0.30801629	    -25.39191844	      0.09410543	     -3.91304553	    -34.62016376	     21.53097618	     26.49271981	      0.00000000	     15.50649597	      5.53285371	      0.18284446	    -21.79911672	     14.45247367	      3.90202520	      0.00000000	    -33.42408197	     -1.85736433	     12.47370410
      5.46500000	     13.48222215	      2.12967057	      1.42916034	      1.56513207	      0.73099352	     -0.30867100	    -24.68810452	     -0.78078543	     -4.31660791	    -36.90527538	     20.06735564	     26.13414890	      0.00000000	     15.35308713	      6.34509697	      0.40086904	    -22.88376527	     14.32233646	      3.19661585	      0.00000000	    -33.40507651	     -2.45997890	     12.17215182
      5.47000000	     13.53126143	      2.76907681	      1.41438090	      1.57323337	      0.73143038	     -0.30926248	    -23.96244850	     -1.62989705	     -4.65236059	    -39.18382335	     18.62010896	     25.41997543	      0.00000000	     15.11496645	      7.12251513	      0.51388309	    -23.85890702	     14.26623826	      2.79173026	      0.00000000	    -33.43616865	     -3.05000676	     11.86972463
      5.47500000	     13.55501685	      3.39461128	      1.38651817	      1.58125989	      0.73190973	     -0.30986059	    -23.15215716	     -2.47933284	     -4.93431777	    -41.46214629	     17.25332642	     24.49510934	      0.00000000	     14.84165991	      7.89875730	      0.66996061	    -24.70854216	     14.33040893	      2.37068155	      0.00000000	    -33.44740430	     -3.61828739	     11.59608078
      5.48000000	     13.56095413	      3.99397724	      1.35024624	      1.58919686	      0.73244001	     -0.31044992	    -22.26820287	     -3.30815477	     -5.16264383	    -43.72083196	     16.02102298	     23.31535146	      0.00000000	     14.52160164	      8.65165585	      0.83291444	    -25.41946799	     14.50171764	      1.99773069	      0.00000000	    -33.44935063	     -4.15361719	     11.34577128
      5.48500000	     13.56610653	      4.57456093	      1.31553856	      1.59705066	      0.73303503	     -0.31103352	    -21.34676073	     -4.11929053	     -5.36564944	    -45.92394001	     14.95178580	     21.88946919	      0.00000000	     14.15143263	      9.38394631	      0.97240554	    -26.02220170	     14.74362283	      1.72192235	      0.00000000	    -33.45889461	     -4.66184985	     11.12854674
      5.49000000	     13.57635271	      5.16028730	      1.28620367	      1.60483107	      0.73370823	     -0.31159039	    -20.39885992	     -4.93016050	     -5.53413314	    -48.06253421	     14.03273182	     20.29555681	      0.00000000	     13.70291744	     10.11817914	      1.11963437	    -26.47312607	     15.05000323	      1.57328549	      0.00000000	    -33.48633576	     -5.17003605	     10.88819286
      5.49500000	     13.51494184	      5.62124967	      1.22197595	      1.61248442	      0.73435957	     -0.31211979	    -19.30492316	     -5.60560787	     -5.55182078	    -50.14930709	     13.33913530	     18.35199666	      0.00000000	     13.29382633	     10.72894420	      1.28784438	    -26.83483931	     15.48977862	      1.29805488	      0.00000000	    -33.43351452	     -5.55690570	     10.77314906
